<?xml version="1.0" encoding="UTF-8"?>
<!DOCTYPE svg PUBLIC "-//W3C//DTD SVG 1.1//EN" "http://www.w3.org/Graphics/SVG/1.1/DTD/svg11.dtd">
<svg xmlns="http://www.w3.org/2000/svg" version="1.1" width="1535px" height="1553px" style="shape-rendering:geometricPrecision; text-rendering:geometricPrecision; image-rendering:optimizeQuality; fill-rule:evenodd; clip-rule:evenodd" xmlns:xlink="http://www.w3.org/1999/xlink">
<g><path style="opacity:0.989" fill="#809ed2" d="M 92.5,-0.5 C 93.1667,-0.5 93.8333,-0.5 94.5,-0.5C 311.719,228.056 530.052,455.723 749.5,682.5C 707.666,702.191 666.333,701.024 625.5,679C 622.328,677.248 619.328,675.248 616.5,673C 481.305,540.137 345.805,407.637 210,275.5C 209.667,526.5 209.333,777.5 209,1028.5C 170.654,1067.68 132.154,1106.68 93.5,1145.5C 92.5,763.501 92.1667,381.501 92.5,-0.5 Z"/></g>
<g><path style="opacity:0.994" fill="#809ed2" d="M 1431.5,-0.5 C 1431.83,-0.5 1432.17,-0.5 1432.5,-0.5C 1432.67,381.5 1432.5,763.5 1432,1145.5C 1393.67,1106.5 1355.33,1067.5 1317,1028.5C 1316.67,777.5 1316.33,526.5 1316,275.5C 1179.5,408.667 1043,541.833 906.5,675C 867.132,699.431 825.799,703.097 782.5,686C 780.153,685.288 778.153,684.121 776.5,682.5C 995.219,455.116 1213.55,227.449 1431.5,-0.5 Z"/></g>
<g><path style="opacity:0.418" fill="#fefffe" d="M 700.5,789.5 C 702.972,790.749 703.139,792.415 701,794.5C 700.506,792.866 700.34,791.199 700.5,789.5 Z"/></g>
<g><path style="opacity:0.979" fill="#386fb6" d="M 22.5,1251.5 C 35.5171,1251.17 48.5171,1251.5 61.5,1252.5C 88.2363,1312.54 115.07,1372.54 142,1432.5C 169.774,1372.62 197.274,1312.62 224.5,1252.5C 235.814,1251.5 247.147,1251.17 258.5,1251.5C 258.5,1327.83 258.5,1404.17 258.5,1480.5C 247.5,1480.5 236.5,1480.5 225.5,1480.5C 225.667,1426.5 225.5,1372.5 225,1318.5C 200.833,1372.17 176.667,1425.83 152.5,1479.5C 143.941,1480.82 135.441,1480.82 127,1479.5C 103,1425.5 79,1371.5 55,1317.5C 54.5,1371.83 54.3333,1426.17 54.5,1480.5C 43.8333,1480.5 33.1667,1480.5 22.5,1480.5C 22.5,1404.17 22.5,1327.83 22.5,1251.5 Z"/></g>
<g><path style="opacity:0.979" fill="#386fb6" d="M 780.5,1251.5 C 793.517,1251.17 806.517,1251.5 819.5,1252.5C 846.236,1312.54 873.07,1372.54 900,1432.5C 927.774,1372.62 955.274,1312.62 982.5,1252.5C 993.814,1251.5 1005.15,1251.17 1016.5,1251.5C 1016.5,1327.83 1016.5,1404.17 1016.5,1480.5C 1005.5,1480.5 994.5,1480.5 983.5,1480.5C 983.667,1426.5 983.5,1372.5 983,1318.5C 958.833,1372.17 934.667,1425.83 910.5,1479.5C 901.941,1480.82 893.441,1480.82 885,1479.5C 861,1425.5 837,1371.5 813,1317.5C 812.5,1371.83 812.333,1426.17 812.5,1480.5C 801.833,1480.5 791.167,1480.5 780.5,1480.5C 780.5,1404.17 780.5,1327.83 780.5,1251.5 Z"/></g>
<g><path style="opacity:0.251" fill="#fefffe" d="M 940.5,1266.5 C 941.497,1265.29 942.497,1265.45 943.5,1267C 942.423,1267.47 941.423,1267.3 940.5,1266.5 Z"/></g>
<g><path style="opacity:0.973" fill="#386fb6" d="M 674.5,1277.5 C 684.833,1277.5 695.167,1277.5 705.5,1277.5C 705.5,1291.83 705.5,1306.17 705.5,1320.5C 719.833,1320.5 734.167,1320.5 748.5,1320.5C 748.5,1330.5 748.5,1340.5 748.5,1350.5C 734.167,1350.5 719.833,1350.5 705.5,1350.5C 705.333,1377.17 705.5,1403.84 706,1430.5C 709.911,1446.23 720.077,1453.89 736.5,1453.5C 740.516,1453.26 744.516,1452.93 748.5,1452.5C 748.5,1462.17 748.5,1471.83 748.5,1481.5C 735.392,1483.25 722.392,1482.75 709.5,1480C 688.763,1472.92 677.263,1458.42 675,1436.5C 674.5,1407.84 674.333,1379.17 674.5,1350.5C 664.167,1350.5 653.833,1350.5 643.5,1350.5C 643.5,1340.5 643.5,1330.5 643.5,1320.5C 653.833,1320.5 664.167,1320.5 674.5,1320.5C 674.5,1306.17 674.5,1291.83 674.5,1277.5 Z"/></g>
<g><path style="opacity:0.973" fill="#386fb6" d="M 1276.5,1277.5 C 1286.83,1277.5 1297.17,1277.5 1307.5,1277.5C 1307.5,1291.83 1307.5,1306.17 1307.5,1320.5C 1321.83,1320.5 1336.17,1320.5 1350.5,1320.5C 1350.5,1330.5 1350.5,1340.5 1350.5,1350.5C 1336.17,1350.5 1321.83,1350.5 1307.5,1350.5C 1307.33,1377.17 1307.5,1403.84 1308,1430.5C 1311.91,1446.23 1322.08,1453.89 1338.5,1453.5C 1342.52,1453.26 1346.52,1452.93 1350.5,1452.5C 1350.5,1462.17 1350.5,1471.83 1350.5,1481.5C 1337.39,1483.25 1324.39,1482.75 1311.5,1480C 1290.76,1472.92 1279.26,1458.42 1277,1436.5C 1276.5,1407.84 1276.33,1379.17 1276.5,1350.5C 1266.17,1350.5 1255.83,1350.5 1245.5,1350.5C 1245.5,1340.5 1245.5,1330.5 1245.5,1320.5C 1255.83,1320.5 1266.17,1320.5 1276.5,1320.5C 1276.5,1306.17 1276.5,1291.83 1276.5,1277.5 Z"/></g>
<g><path style="opacity:0.966" fill="#386fb6" d="M 362.5,1317.5 C 407.758,1313.86 437.258,1333.53 451,1376.5C 452.35,1387.45 452.85,1398.45 452.5,1409.5C 409.833,1409.5 367.167,1409.5 324.5,1409.5C 329.14,1439.14 346.473,1454.8 376.5,1456.5C 392.506,1456.56 405.673,1450.56 416,1438.5C 417.645,1435.38 419.145,1432.21 420.5,1429C 430.828,1428.5 441.161,1428.33 451.5,1428.5C 444.71,1457.46 426.71,1475.29 397.5,1482C 354.286,1490.47 322.119,1475.64 301,1437.5C 288.525,1406.16 291.525,1376.5 310,1348.5C 323.673,1331.66 341.173,1321.32 362.5,1317.5 Z M 367.5,1345.5 C 394.696,1343.89 412.029,1356.06 419.5,1382C 388.161,1382.83 356.828,1382.67 325.5,1381.5C 332.35,1361.09 346.35,1349.09 367.5,1345.5 Z"/></g>
<g><path style="opacity:0.966" fill="#386fb6" d="M 541.5,1317.5 C 586.758,1313.86 616.258,1333.53 630,1376.5C 631.35,1387.45 631.85,1398.45 631.5,1409.5C 588.833,1409.5 546.167,1409.5 503.5,1409.5C 508.14,1439.14 525.473,1454.8 555.5,1456.5C 571.506,1456.56 584.673,1450.56 595,1438.5C 596.645,1435.38 598.145,1432.21 599.5,1429C 609.828,1428.5 620.161,1428.33 630.5,1428.5C 623.71,1457.46 605.71,1475.29 576.5,1482C 533.286,1490.47 501.119,1475.64 480,1437.5C 467.525,1406.16 470.525,1376.5 489,1348.5C 502.673,1331.66 520.173,1321.32 541.5,1317.5 Z M 546.5,1345.5 C 573.696,1343.89 591.029,1356.06 598.5,1382C 567.161,1382.83 535.828,1382.67 504.5,1381.5C 511.35,1361.09 525.35,1349.09 546.5,1345.5 Z"/></g>
<g><path style="opacity:0.974" fill="#386fb6" d="M 1117.5,1317.5 C 1148.19,1313.44 1172.02,1324.11 1189,1349.5C 1189.5,1339.84 1189.67,1330.17 1189.5,1320.5C 1199.83,1320.5 1210.17,1320.5 1220.5,1320.5C 1220.5,1373.83 1220.5,1427.17 1220.5,1480.5C 1210.17,1480.5 1199.83,1480.5 1189.5,1480.5C 1189.67,1470.83 1189.5,1461.16 1189,1451.5C 1175.45,1473.53 1155.62,1484.53 1129.5,1484.5C 1095.74,1482.56 1071.9,1466.22 1058,1435.5C 1046.13,1403.28 1050.13,1373.28 1070,1345.5C 1082.56,1330.41 1098.39,1321.08 1117.5,1317.5 Z M 1132.5,1346.5 C 1163.13,1346.98 1181.96,1361.98 1189,1391.5C 1192.11,1415.11 1183.94,1433.61 1164.5,1447C 1134.87,1460.88 1110.04,1455.05 1090,1429.5C 1078.08,1408.2 1079.08,1387.53 1093,1367.5C 1103.39,1355.06 1116.56,1348.06 1132.5,1346.5 Z"/></g>
<g><path style="opacity:0.966" fill="#386fb6" d="M 1431.5,1317.5 C 1476.76,1313.86 1506.26,1333.53 1520,1376.5C 1521.35,1387.45 1521.85,1398.45 1521.5,1409.5C 1478.83,1409.5 1436.17,1409.5 1393.5,1409.5C 1398.14,1439.14 1415.47,1454.8 1445.5,1456.5C 1461.51,1456.56 1474.67,1450.56 1485,1438.5C 1486.64,1435.38 1488.14,1432.21 1489.5,1429C 1499.83,1428.5 1510.16,1428.33 1520.5,1428.5C 1513.71,1457.46 1495.71,1475.29 1466.5,1482C 1423.29,1490.47 1391.12,1475.64 1370,1437.5C 1357.53,1406.16 1360.53,1376.5 1379,1348.5C 1392.67,1331.66 1410.17,1321.32 1431.5,1317.5 Z M 1436.5,1345.5 C 1463.7,1343.89 1481.03,1356.06 1488.5,1382C 1457.16,1382.83 1425.83,1382.67 1394.5,1381.5C 1401.35,1361.09 1415.35,1349.09 1436.5,1345.5 Z"/></g>
</svg>
